<svg xmlns="http://www.w3.org/2000/svg" width="20" height="20" viewBox="0 0 20 20" fill="none">
  <path d="M10.6599 20C8.93401 20 7.40835 19.7771 6.08291 19.3312C4.75747 18.8907 3.64354 18.2404 2.74112 17.3806C1.83869 16.5207 1.15623 15.4671 0.693739 14.2197C0.231246 12.9724 0 11.5446 0 9.93631C0 8.3811 0.234067 6.99045 0.7022 5.76433C1.17597 4.53822 1.86125 3.49788 2.75804 2.64331C3.66046 1.78344 4.75465 1.12792 6.04061 0.676752C7.3322 0.225584 8.79301 0 10.423 0C12.0079 0 13.3954 0.244161 14.5854 0.732484C15.7812 1.2155 16.7795 1.87102 17.5804 2.69905C18.3869 3.52176 18.9904 4.44798 19.3909 5.47771C19.797 6.50743 20 7.569 20 8.66242C20 9.43206 19.9605 10.2123 19.8816 11.0032C19.8026 11.7941 19.6362 12.5212 19.3824 13.1847C19.1286 13.8429 18.7366 14.3737 18.2064 14.7771C17.6819 15.1805 16.9712 15.3822 16.0744 15.3822C15.6796 15.3822 15.2453 15.3238 14.7716 15.207C14.2978 15.0902 13.8776 14.8965 13.511 14.6258C13.1444 14.3551 12.9272 13.9915 12.8596 13.535H12.758C12.6227 13.8429 12.414 14.1348 12.132 14.4108C11.8556 14.6868 11.4918 14.9071 11.0406 15.0717C10.595 15.2362 10.0508 15.3079 9.40778 15.2866C8.67456 15.2601 8.02876 15.1062 7.47039 14.8248C6.91201 14.5382 6.44388 14.1507 6.06599 13.6624C5.69374 13.1688 5.41173 12.5982 5.21997 11.9506C5.03384 11.2978 4.94078 10.5945 4.94078 9.84076C4.94078 9.1242 5.05358 8.46868 5.27919 7.8742C5.50479 7.27972 5.81782 6.75955 6.21827 6.31369C6.62436 5.86783 7.09814 5.51221 7.63959 5.24682C8.18669 4.97612 8.77608 4.80892 9.40778 4.74522C9.9718 4.69214 10.4851 4.71603 10.9475 4.81688C11.41 4.91242 11.7908 5.05839 12.0897 5.25478C12.3886 5.44586 12.5776 5.65817 12.6565 5.89172H12.758V5H14.5516V12.1975C14.5516 12.6433 14.6842 13.0361 14.9492 13.3758C15.2143 13.7155 15.6007 13.8854 16.1083 13.8854C16.6836 13.8854 17.1235 13.6996 17.4281 13.328C17.7383 12.9565 17.9498 12.3832 18.0626 11.6083C18.181 10.8333 18.2403 9.84076 18.2403 8.63057C18.2403 7.91932 18.1359 7.21868 17.9272 6.52866C17.7242 5.83333 17.414 5.18312 16.9966 4.57803C16.5849 3.97293 16.0632 3.43949 15.4315 2.97771C14.7998 2.51592 14.0581 2.15499 13.2064 1.8949C12.3604 1.62951 11.3988 1.49682 10.3215 1.49682C8.99605 1.49682 7.8088 1.69055 6.75973 2.07803C5.7163 2.46019 4.82798 3.02017 4.09475 3.75796C3.36717 4.49045 2.81162 5.38217 2.42809 6.43312C2.0502 7.47877 1.86125 8.66773 1.86125 10C1.86125 11.3535 2.0502 12.5557 2.42809 13.6067C2.81162 14.6576 3.37563 15.5441 4.12014 16.2659C4.87028 16.9878 5.79808 17.5345 6.90355 17.9061C8.00902 18.2829 9.2837 18.4713 10.7276 18.4713C11.348 18.4713 11.96 18.4156 12.5635 18.3041C13.1669 18.1927 13.6999 18.0706 14.1624 17.9379C14.6249 17.8052 14.9577 17.707 15.1607 17.6433L15.6345 19.1083C15.2848 19.2463 14.828 19.3843 14.264 19.5223C13.7056 19.6603 13.1077 19.7744 12.4704 19.8647C11.8387 19.9549 11.2352 20 10.6599 20ZM9.67851 13.6624C10.4343 13.6624 11.0462 13.5191 11.5144 13.2325C11.9825 12.9459 12.3237 12.5133 12.5381 11.9347C12.7524 11.3562 12.8596 10.6263 12.8596 9.74522C12.8596 8.8535 12.7411 8.15817 12.5042 7.65924C12.2673 7.1603 11.9177 6.80998 11.4552 6.60828C10.9927 6.40658 10.423 6.30573 9.74619 6.30573C9.10321 6.30573 8.5533 6.46497 8.09645 6.78344C7.64523 7.0966 7.29836 7.51592 7.05584 8.0414C6.81895 8.56157 6.70051 9.12951 6.70051 9.74522C6.70051 10.4246 6.79639 11.0642 6.98816 11.664C7.17992 12.2585 7.49295 12.7415 7.92724 13.1131C8.36153 13.4793 8.94529 13.6624 9.67851 13.6624Z" fill="#C6C5C8"/>
</svg>