<svg width="570" height="537" viewBox="0 0 570 537" fill="none" xmlns="http://www.w3.org/2000/svg">
<ellipse cx="288.5" cy="268.5" rx="263.5" ry="268.5" fill="#EC6262" fill-opacity="0.5"/>
<path d="M498.5 268.5C498.5 386.698 404.471 482.5 288.5 482.5C172.529 482.5 78.5 386.698 78.5 268.5C78.5 150.302 172.529 54.5 288.5 54.5C404.471 54.5 498.5 150.302 498.5 268.5Z" fill="#EC6262" stroke="url(#paint0_linear_1198_529)"/>
<g filter="url(#filter0_d_1198_529)">
<rect x="28" y="143.77" width="316" height="252" rx="15" transform="rotate(-8.51133 28 143.77)" fill="white"/>
</g>
<path d="M52.4146 180.873L50.2618 166.487L53.3032 166.032L55.0807 177.91L61.2479 176.987L61.6231 179.495L52.4146 180.873ZM68.4873 178.683C67.3962 178.846 66.418 178.755 65.5525 178.411C64.6911 178.061 63.9826 177.502 63.427 176.733C62.8708 175.959 62.51 175.02 62.3446 173.914C62.1778 172.8 62.2475 171.794 62.5535 170.896C62.8589 169.993 63.3726 169.251 64.0946 168.669C64.8206 168.081 65.7291 167.706 66.8202 167.543C67.9112 167.379 68.8875 167.473 69.7489 167.822C70.6144 168.167 71.3252 168.726 71.8815 169.5C72.437 170.269 72.7982 171.211 72.965 172.325C73.1303 173.43 73.0604 174.434 72.755 175.337C72.4489 176.235 71.9329 176.977 71.2069 177.565C70.4849 178.147 69.5784 178.519 68.4873 178.683ZM68.1545 176.363C68.6508 176.288 69.0442 176.086 69.3347 175.755C69.6244 175.42 69.8167 174.994 69.9117 174.477C70.0114 173.959 70.0143 173.387 69.9204 172.759C69.8265 172.132 69.6561 171.585 69.4093 171.119C69.1671 170.653 68.8584 170.302 68.4832 170.066C68.108 169.83 67.6722 169.749 67.1758 169.823C66.6748 169.898 66.2747 170.104 65.9756 170.441C65.6812 170.777 65.4842 171.204 65.3845 171.722C65.2895 172.238 65.289 172.811 65.3829 173.438C65.4768 174.066 65.6448 174.613 65.887 175.079C66.1338 175.545 66.4472 175.895 66.8271 176.13C67.211 176.36 67.6534 176.438 68.1545 176.363ZM75.7116 177.386L74.097 166.597L76.998 166.163L77.2797 168.046L77.3921 168.029C77.4885 167.33 77.743 166.775 78.1554 166.363C78.5671 165.947 79.075 165.694 79.6791 165.604C79.8289 165.581 79.9919 165.567 80.168 165.559C80.344 165.552 80.5001 165.555 80.6361 165.568L81.0334 168.223C80.8866 168.202 80.6867 168.194 80.4336 168.198C80.1805 168.203 79.951 168.22 79.7449 168.251C79.3047 168.317 78.9258 168.472 78.608 168.716C78.2942 168.954 78.0618 169.257 77.9109 169.624C77.7647 169.991 77.7245 170.394 77.7904 170.834L78.7039 176.938L75.7116 177.386ZM88.2512 175.725C87.1414 175.891 86.1525 175.809 85.2845 175.48C84.4205 175.145 83.711 174.595 83.1562 173.83C82.6006 173.061 82.2377 172.108 82.0674 170.97C81.9013 169.86 81.971 168.854 82.2764 167.951C82.5817 167.049 83.0904 166.305 83.8023 165.719C84.5189 165.133 85.4064 164.761 86.4647 164.603C87.1764 164.496 87.8562 164.512 88.504 164.649C89.1557 164.782 89.7451 165.041 90.2719 165.426C90.8035 165.811 91.2496 166.328 91.6101 166.978C91.97 167.623 92.2186 168.405 92.3559 169.323L92.4789 170.144L83.3687 171.508L83.0912 169.653L89.3848 168.712C89.3203 168.281 89.1695 167.913 88.9325 167.609C88.6954 167.304 88.3966 167.083 88.0361 166.946C87.6796 166.803 87.2836 166.764 86.8481 166.829C86.3939 166.897 86.0069 167.063 85.6873 167.326C85.3716 167.584 85.1417 167.903 84.9976 168.284C84.8528 168.66 84.8099 169.061 84.869 169.488L85.1328 171.251C85.2127 171.785 85.3801 172.231 85.6349 172.591C85.8944 172.949 86.2226 173.206 86.6194 173.362C87.0162 173.518 87.4651 173.559 87.9661 173.484C88.2986 173.434 88.596 173.342 88.8582 173.207C89.1205 173.072 89.336 172.896 89.5046 172.679C89.6732 172.463 89.7887 172.211 89.8511 171.924L92.6459 171.692C92.605 172.378 92.4039 173.002 92.0427 173.563C91.6854 174.12 91.1857 174.587 90.5433 174.965C89.905 175.339 89.1409 175.592 88.2512 175.725ZM95.1243 174.481L93.5097 163.692L96.3615 163.265L96.6464 165.169L96.7728 165.15C96.903 164.484 97.203 163.929 97.6728 163.486C98.1426 163.042 98.7427 162.765 99.4732 162.656C100.213 162.545 100.871 162.636 101.446 162.928C102.02 163.216 102.441 163.66 102.708 164.262L102.821 164.245C102.948 163.594 103.272 163.04 103.793 162.584C104.317 162.123 104.975 161.833 105.767 161.714C106.774 161.563 107.639 161.762 108.362 162.31C109.09 162.852 109.541 163.708 109.716 164.879L110.802 172.135L107.817 172.582L106.819 165.916C106.73 165.316 106.503 164.891 106.14 164.639C105.777 164.387 105.356 164.296 104.878 164.368C104.335 164.449 103.937 164.686 103.685 165.078C103.432 165.465 103.347 165.94 103.431 166.502L104.417 173.09L101.516 173.524L100.509 166.795C100.43 166.266 100.215 165.868 99.8634 165.599C99.5168 165.331 99.0976 165.233 98.6059 165.306C98.2735 165.356 97.9864 165.485 97.7447 165.694C97.507 165.897 97.3333 166.16 97.2236 166.483C97.1133 166.801 97.0878 167.159 97.1474 167.557L98.1166 174.033L95.1243 174.481ZM118.688 156.247L120.841 170.632L117.8 171.088L115.647 156.702L118.688 156.247ZM123.893 174.312L121.673 159.477L124.623 159.036L124.894 160.848L125.027 160.828C125.115 160.518 125.261 160.195 125.464 159.858C125.671 159.516 125.961 159.214 126.334 158.952C126.71 158.685 127.201 158.506 127.805 158.416C128.591 158.298 129.348 158.396 130.075 158.708C130.801 159.016 131.424 159.552 131.946 160.317C132.466 161.077 132.819 162.075 133.004 163.311C133.184 164.515 133.142 165.56 132.877 166.447C132.617 167.329 132.186 168.032 131.585 168.558C130.987 169.078 130.279 169.4 129.46 169.522C128.879 169.609 128.371 169.587 127.934 169.456C127.503 169.324 127.137 169.133 126.836 168.881C126.534 168.624 126.293 168.356 126.112 168.077L126.021 168.091L126.885 173.864L123.893 174.312ZM125.409 164.434C125.505 165.075 125.678 165.621 125.927 166.072C126.177 166.523 126.49 166.857 126.867 167.074C127.243 167.285 127.673 167.355 128.155 167.283C128.642 167.21 129.034 167.015 129.331 166.698C129.628 166.375 129.827 165.963 129.929 165.459C130.035 164.95 130.04 164.382 129.947 163.754C129.853 163.132 129.685 162.597 129.441 162.15C129.197 161.703 128.886 161.371 128.509 161.155C128.132 160.938 127.697 160.867 127.206 160.94C126.719 161.013 126.326 161.204 126.027 161.512C125.733 161.819 125.533 162.222 125.426 162.722C125.319 163.221 125.313 163.792 125.409 164.434ZM143.627 159.337L140.913 159.916C140.831 159.689 140.698 159.493 140.516 159.329C140.333 159.16 140.106 159.038 139.836 158.964C139.571 158.884 139.265 158.87 138.918 158.922C138.455 158.991 138.078 159.148 137.789 159.392C137.5 159.632 137.379 159.913 137.427 160.236C137.466 160.494 137.601 160.696 137.834 160.843C138.067 160.99 138.442 161.08 138.959 161.113L140.97 161.214C142.052 161.273 142.885 161.502 143.472 161.903C144.059 162.303 144.41 162.892 144.526 163.67C144.632 164.377 144.517 165.028 144.18 165.624C143.848 166.22 143.343 166.721 142.667 167.129C141.995 167.531 141.19 167.803 140.254 167.943C138.826 168.156 137.643 168.029 136.707 167.562C135.774 167.088 135.158 166.347 134.859 165.339L137.779 164.744C137.933 165.166 138.198 165.466 138.574 165.645C138.95 165.818 139.404 165.865 139.938 165.785C140.463 165.707 140.869 165.543 141.157 165.294C141.45 165.04 141.574 164.751 141.53 164.427C141.485 164.156 141.337 163.951 141.086 163.811C140.835 163.667 140.468 163.583 139.986 163.559L138.061 163.466C136.976 163.413 136.137 163.166 135.544 162.723C134.956 162.279 134.602 161.655 134.481 160.85C134.378 160.157 134.476 159.531 134.775 158.974C135.08 158.417 135.553 157.951 136.196 157.577C136.844 157.202 137.629 156.946 138.552 156.808C139.914 156.604 141.03 156.731 141.898 157.19C142.771 157.649 143.347 158.364 143.627 159.337ZM153.142 161.102L152.215 154.907L155.207 154.459L156.822 165.248L153.949 165.678L153.656 163.718L153.543 163.735C153.394 164.403 153.065 164.972 152.556 165.441C152.052 165.909 151.395 166.204 150.584 166.325C149.863 166.433 149.204 166.364 148.607 166.118C148.01 165.872 147.512 165.47 147.113 164.913C146.718 164.354 146.455 163.654 146.324 162.812L145.296 155.942L148.289 155.494L149.237 161.83C149.337 162.466 149.583 162.944 149.975 163.263C150.368 163.583 150.848 163.7 151.414 163.615C151.775 163.561 152.1 163.429 152.389 163.218C152.677 163.003 152.893 162.717 153.036 162.36C153.184 162.003 153.219 161.583 153.142 161.102ZM159.215 164.89L157.601 154.101L160.452 153.674L160.737 155.577L160.864 155.558C160.994 154.893 161.294 154.338 161.764 153.894C162.234 153.45 162.834 153.174 163.564 153.065C164.304 152.954 164.962 153.045 165.537 153.337C166.111 153.624 166.532 154.069 166.799 154.67L166.911 154.653C167.039 154.002 167.363 153.449 167.884 152.993C168.408 152.531 169.066 152.241 169.858 152.123C170.865 151.972 171.73 152.171 172.453 152.718C173.181 153.26 173.632 154.117 173.807 155.288L174.893 162.543L171.908 162.99L170.91 156.324C170.821 155.725 170.594 155.299 170.231 155.047C169.867 154.795 169.447 154.705 168.969 154.776C168.426 154.858 168.028 155.094 167.776 155.486C167.523 155.874 167.438 156.348 167.522 156.91L168.508 163.499L165.607 163.933L164.6 157.204C164.521 156.675 164.306 156.276 163.954 156.008C163.608 155.739 163.189 155.641 162.697 155.715C162.364 155.765 162.077 155.894 161.836 156.102C161.598 156.306 161.424 156.569 161.315 156.891C161.204 157.21 161.179 157.568 161.238 157.966L162.208 164.442L159.215 164.89Z" fill="#1E1E1E"/>
<path d="M55.7655 198.936L54.4738 190.305L55.519 190.149L56.6719 197.853L60.684 197.252L60.8228 198.18L55.7655 198.936ZM64.9563 197.699C64.3719 197.786 63.8383 197.724 63.3556 197.512C62.8756 197.299 62.4746 196.961 62.1525 196.498C61.8332 196.035 61.6236 195.469 61.5235 194.8C61.4226 194.126 61.4567 193.519 61.6259 192.979C61.7979 192.439 62.0822 191.998 62.4789 191.654C62.8784 191.31 63.3703 191.094 63.9547 191.006C64.5391 190.919 65.0713 190.981 65.5512 191.194C66.0339 191.406 66.4352 191.745 66.7549 192.212C67.0774 192.678 67.2891 193.248 67.39 193.922C67.4901 194.591 67.4539 195.194 67.2815 195.731C67.1119 196.267 66.8274 196.708 66.4279 197.052C66.0312 197.396 65.5407 197.611 64.9563 197.699ZM64.8226 196.805C65.2665 196.739 65.6147 196.571 65.8672 196.3C66.1197 196.03 66.2871 195.699 66.3693 195.307C66.4514 194.916 66.4601 194.504 66.3954 194.071C66.3306 193.638 66.2015 193.245 66.0079 192.892C65.8143 192.539 65.5569 192.269 65.2359 192.081C64.9148 191.894 64.5323 191.833 64.0884 191.9C63.6445 191.966 63.2965 192.136 63.0444 192.409C62.7923 192.683 62.6254 193.016 62.5436 193.411C62.4619 193.805 62.4534 194.218 62.5181 194.651C62.5829 195.084 62.7118 195.475 62.905 195.826C63.0982 196.176 63.3551 196.443 63.6757 196.628C63.9964 196.813 64.3786 196.872 64.8226 196.805ZM69.3876 196.898L68.4188 190.424L69.3797 190.281L69.526 191.258L69.5935 191.248C69.6635 190.91 69.8382 190.618 70.1174 190.373C70.3966 190.127 70.73 189.975 71.1178 189.917C71.1908 189.906 71.2823 189.894 71.3923 189.88C71.5023 189.867 71.5858 189.859 71.6429 189.856L71.7943 190.867C71.7593 190.864 71.6801 190.863 71.5568 190.864C71.4358 190.862 71.3093 190.871 71.1773 190.891C70.8626 190.938 70.5915 191.046 70.364 191.215C70.1389 191.381 69.972 191.589 69.8632 191.841C69.7568 192.09 69.7254 192.36 69.7691 192.653L70.3822 196.749L69.3876 196.898ZM76.3405 195.995C75.7168 196.089 75.1581 196.031 74.6646 195.824C74.1734 195.613 73.7684 195.277 73.4495 194.816C73.133 194.352 72.9252 193.789 72.826 193.126C72.7267 192.463 72.7601 191.86 72.926 191.318C73.0944 190.773 73.375 190.326 73.7681 189.977C74.1635 189.625 74.6534 189.405 75.2378 189.318C75.5749 189.267 75.9163 189.274 76.2618 189.337C76.6074 189.4 76.9339 189.538 77.2415 189.75C77.5487 189.96 77.8132 190.259 78.0352 190.649C78.2571 191.038 78.4133 191.534 78.5037 192.138L78.5668 192.56L73.5769 193.306L73.4482 192.447L77.4266 191.851C77.372 191.486 77.2502 191.171 77.0612 190.906C76.875 190.641 76.636 190.446 76.3443 190.32C76.0554 190.194 75.7311 190.157 75.3715 190.211C74.9753 190.271 74.6473 190.42 74.3873 190.66C74.1298 190.897 73.947 191.183 73.8392 191.518C73.7313 191.853 73.7041 192.199 73.7575 192.555L73.8433 193.129C73.9164 193.618 74.0627 194.019 74.2822 194.334C74.504 194.646 74.7799 194.867 75.1099 194.999C75.4394 195.127 75.805 195.162 76.2068 195.102C76.4681 195.063 76.6986 194.991 76.8984 194.886C77.1006 194.778 77.2678 194.638 77.4 194.466C77.5319 194.292 77.6231 194.085 77.6738 193.848L78.675 193.974C78.6226 194.315 78.4955 194.627 78.2937 194.91C78.0915 195.19 77.8251 195.425 77.4945 195.616C77.1635 195.803 76.7788 195.93 76.3405 195.995ZM80.5137 195.233L79.5449 188.759L80.5058 188.616L80.6572 189.627L80.7415 189.614C80.8246 189.249 81.0022 188.948 81.2742 188.712C81.5458 188.473 81.8924 188.322 82.3138 188.259C82.7409 188.195 83.1108 188.239 83.4236 188.39C83.7388 188.538 84.0023 188.773 84.2142 189.095L84.2816 189.085C84.3973 188.725 84.6062 188.423 84.9083 188.176C85.21 187.927 85.5927 187.768 86.0562 187.699C86.635 187.612 87.1356 187.723 87.5579 188.03C87.9797 188.334 88.2477 188.867 88.3616 189.629L89.01 193.961L88.0154 194.11L87.367 189.778C87.2955 189.3 87.1138 188.978 86.8218 188.812C86.5298 188.646 86.2068 188.59 85.8528 188.643C85.3976 188.711 85.0656 188.901 84.8568 189.214C84.6475 189.524 84.5742 189.888 84.6368 190.307L85.2676 194.521L84.2561 194.673L83.5926 190.239C83.5375 189.871 83.3737 189.592 83.1013 189.403C82.8284 189.212 82.5037 189.144 82.1272 189.2C81.8687 189.239 81.6374 189.344 81.4333 189.515C81.2319 189.686 81.0807 189.904 80.9796 190.169C80.8809 190.431 80.8553 190.721 80.9028 191.038L81.5083 195.084L80.5137 195.233ZM94.0547 184.382L95.3464 193.013L94.3012 193.169L93.0095 184.538L94.0547 184.382ZM97.6704 195.147L96.3384 186.246L97.2993 186.102L97.4532 187.131L97.5712 187.113C97.6274 186.99 97.7071 186.831 97.8103 186.638C97.9158 186.441 98.0805 186.255 98.3044 186.081C98.5306 185.904 98.8544 185.783 99.2759 185.72C99.8209 185.639 100.322 185.703 100.778 185.914C101.235 186.124 101.617 186.462 101.925 186.927C102.233 187.392 102.438 187.965 102.54 188.644C102.643 189.33 102.615 189.942 102.457 190.48C102.299 191.015 102.034 191.451 101.662 191.788C101.29 192.122 100.834 192.33 100.294 192.41C99.8784 192.473 99.5352 192.454 99.2645 192.353C98.9935 192.25 98.7773 192.12 98.6159 191.964C98.4541 191.804 98.3279 191.671 98.2372 191.563L98.1529 191.576L98.665 194.998L97.6704 195.147ZM97.8005 189.337C97.8737 189.825 98.0098 190.246 98.2091 190.598C98.4079 190.948 98.6607 191.207 98.9676 191.377C99.274 191.543 99.6267 191.597 100.026 191.537C100.442 191.475 100.772 191.313 101.017 191.053C101.265 190.789 101.431 190.459 101.516 190.065C101.603 189.667 101.612 189.237 101.543 188.776C101.475 188.321 101.343 187.922 101.148 187.577C100.955 187.23 100.702 186.97 100.39 186.799C100.079 186.624 99.713 186.568 99.2916 186.632C98.887 186.692 98.5624 186.846 98.3177 187.092C98.0726 187.335 97.9072 187.65 97.8214 188.036C97.7351 188.42 97.7282 188.853 97.8005 189.337ZM108.373 185.927L107.517 186.314C107.439 186.174 107.334 186.041 107.203 185.917C107.075 185.79 106.911 185.694 106.712 185.629C106.513 185.564 106.268 185.553 105.979 185.596C105.583 185.656 105.266 185.796 105.03 186.018C104.795 186.237 104.699 186.486 104.74 186.764C104.778 187.011 104.897 187.193 105.098 187.309C105.299 187.426 105.598 187.503 105.994 187.542L106.991 187.634C107.59 187.688 108.054 187.838 108.381 188.085C108.708 188.329 108.905 188.677 108.972 189.13C109.028 189.5 108.971 189.848 108.801 190.172C108.634 190.496 108.373 190.77 108.019 190.996C107.665 191.221 107.237 191.371 106.734 191.447C106.074 191.546 105.506 191.484 105.03 191.262C104.555 191.04 104.218 190.663 104.02 190.129L104.929 189.752C105.071 190.087 105.28 190.323 105.556 190.46C105.835 190.596 106.178 190.634 106.586 190.573C107.049 190.503 107.403 190.35 107.646 190.112C107.891 189.872 107.993 189.612 107.952 189.334C107.918 189.109 107.811 188.933 107.631 188.805C107.451 188.674 107.192 188.595 106.855 188.568L105.738 188.476C105.124 188.424 104.656 188.272 104.334 188.018C104.014 187.762 103.82 187.41 103.753 186.963C103.699 186.598 103.753 186.26 103.916 185.948C104.082 185.636 104.331 185.373 104.664 185.16C105 184.946 105.395 184.805 105.85 184.737C106.491 184.641 107.015 184.706 107.422 184.932C107.832 185.158 108.149 185.49 108.373 185.927ZM114.423 187.452L113.85 183.625L114.845 183.477L115.814 189.95L114.819 190.099L114.655 189.003L114.588 189.013C114.485 189.365 114.291 189.679 114.005 189.958C113.719 190.233 113.331 190.408 112.843 190.481C112.438 190.541 112.065 190.507 111.724 190.377C111.382 190.244 111.095 190.011 110.861 189.679C110.627 189.343 110.469 188.9 110.386 188.349L109.771 184.236L110.765 184.087L111.371 188.133C111.442 188.605 111.63 188.962 111.936 189.203C112.245 189.444 112.606 189.534 113.019 189.472C113.266 189.435 113.508 189.334 113.745 189.169C113.985 189.004 114.172 188.778 114.307 188.491C114.445 188.203 114.484 187.857 114.423 187.452ZM117.635 189.677L116.667 183.204L117.628 183.06L117.779 184.072L117.863 184.059C117.946 183.693 118.124 183.392 118.396 183.156C118.668 182.917 119.014 182.767 119.436 182.703C119.863 182.64 120.233 182.683 120.545 182.835C120.861 182.983 121.124 183.218 121.336 183.539L121.403 183.529C121.519 183.17 121.728 182.867 122.03 182.621C122.332 182.372 122.714 182.213 123.178 182.143C123.757 182.057 124.257 182.167 124.68 182.474C125.102 182.779 125.369 183.312 125.483 184.073L126.132 188.406L125.137 188.555L124.489 184.222C124.417 183.745 124.236 183.423 123.944 183.257C123.652 183.091 123.329 183.034 122.975 183.087C122.519 183.155 122.187 183.346 121.979 183.659C121.769 183.969 121.696 184.333 121.759 184.751L122.389 188.966L121.378 189.117L120.714 184.684C120.659 184.316 120.496 184.037 120.223 183.848C119.95 183.656 119.625 183.588 119.249 183.645C118.991 183.684 118.759 183.789 118.555 183.96C118.354 184.131 118.202 184.349 118.101 184.614C118.003 184.876 117.977 185.165 118.025 185.483L118.63 189.529L117.635 189.677Z" fill="#576168"/>
<rect x="56.8008" y="221.361" width="277" height="65" rx="9" transform="rotate(-8.51133 56.8008 221.361)" fill="#F8F8F8"/>
<rect x="130" y="224.538" width="84.7122" height="8.26286" rx="4.13143" transform="rotate(-8.51133 130 224.538)" fill="#576168"/>
<rect x="132" y="239.094" width="192.004" height="8.26286" rx="4.13143" transform="rotate(-8.51133 132 239.094)" fill="#D9D9D9"/>
<rect x="134" y="251.094" width="191.129" height="8.26286" rx="4.13143" transform="rotate(-8.51133 134 251.094)" fill="#D9D9D9"/>
<rect x="68.9375" y="302.458" width="277" height="65" rx="9" transform="rotate(-8.51133 68.9375 302.458)" fill="#F8F8F8"/>
<rect x="66.0518" y="227.384" width="49.9111" height="49.8532" rx="6" transform="rotate(-8.51133 66.0518 227.384)" fill="#E84D4D"/>
<rect x="78.9082" y="309.384" width="49.9111" height="49.8532" rx="6" transform="rotate(-8.51133 78.9082 309.384)" fill="#E84D4D"/>
<rect x="143" y="306.862" width="84.7122" height="8.26286" rx="4.13143" transform="rotate(-8.51133 143 306.862)" fill="#576168"/>
<rect x="145" y="321.417" width="192.004" height="8.26286" rx="4.13143" transform="rotate(-8.51133 145 321.417)" fill="#D9D9D9"/>
<rect x="147" y="333.417" width="191.129" height="8.26286" rx="4.13143" transform="rotate(-8.51133 147 333.417)" fill="#D9D9D9"/>
<g filter="url(#filter1_d_1198_529)">
<rect x="202.845" y="351" width="316" height="79" rx="15" transform="rotate(4.2427 202.845 351)" fill="white"/>
</g>
<rect x="216.916" y="364.077" width="55" height="55" rx="27.5" transform="rotate(4.2427 216.916 364.077)" fill="#E84D4D"/>
<path d="M290.02 392.563L290.881 380.959L293.334 381.141L292.624 390.722L297.598 391.091L297.448 393.114L290.02 392.563ZM302.948 393.693C302.067 393.628 301.32 393.384 300.706 392.963C300.095 392.538 299.641 391.976 299.344 391.278C299.046 390.576 298.931 389.779 298.997 388.888C299.064 387.989 299.296 387.216 299.693 386.569C300.091 385.919 300.623 385.43 301.289 385.104C301.959 384.774 302.734 384.641 303.614 384.707C304.494 384.772 305.24 385.017 305.85 385.442C306.465 385.864 306.92 386.426 307.218 387.128C307.515 387.826 307.631 388.624 307.564 389.523C307.498 390.415 307.266 391.186 306.869 391.836C306.471 392.483 305.937 392.971 305.267 393.301C304.601 393.628 303.828 393.759 302.948 393.693ZM303.098 391.824C303.498 391.854 303.841 391.765 304.126 391.559C304.411 391.348 304.636 391.05 304.802 390.663C304.971 390.277 305.074 389.831 305.112 389.324C305.15 388.818 305.113 388.362 305.003 387.955C304.896 387.548 304.717 387.219 304.466 386.969C304.215 386.719 303.889 386.579 303.489 386.549C303.085 386.519 302.736 386.609 302.443 386.819C302.154 387.029 301.925 387.327 301.756 387.714C301.591 388.1 301.489 388.547 301.452 389.053C301.414 389.559 301.449 390.015 301.555 390.422C301.665 390.829 301.848 391.158 302.103 391.409C302.362 391.656 302.694 391.794 303.098 391.824ZM308.813 393.957L309.459 385.254L311.799 385.428L311.687 386.946L311.777 386.953C311.976 386.425 312.273 386.036 312.667 385.788C313.062 385.537 313.503 385.429 313.99 385.465C314.111 385.474 314.241 385.491 314.379 385.517C314.518 385.542 314.639 385.572 314.743 385.606L314.584 387.748C314.473 387.706 314.319 387.664 314.121 387.622C313.922 387.581 313.74 387.554 313.574 387.542C313.219 387.516 312.896 387.57 312.605 387.704C312.318 387.834 312.083 388.03 311.9 388.29C311.722 388.55 311.619 388.857 311.593 389.213L311.227 394.137L308.813 393.957ZM318.891 394.876C317.996 394.81 317.239 394.571 316.62 394.161C316.005 393.746 315.548 393.192 315.25 392.498C314.953 391.8 314.838 390.992 314.906 390.074C314.972 389.178 315.204 388.406 315.602 387.755C316 387.105 316.528 386.614 317.187 386.283C317.85 385.952 318.608 385.819 319.461 385.882C320.036 385.925 320.563 386.057 321.044 386.279C321.53 386.497 321.944 386.803 322.287 387.197C322.633 387.591 322.89 388.074 323.057 388.644C323.224 389.211 323.279 389.865 323.225 390.605L323.175 391.268L315.826 390.723L315.937 389.227L321.014 389.604C321.04 389.256 320.987 388.943 320.856 388.663C320.725 388.384 320.531 388.159 320.274 387.988C320.021 387.813 319.719 387.713 319.367 387.687C319.001 387.66 318.67 387.721 318.374 387.87C318.082 388.015 317.846 388.224 317.667 388.495C317.487 388.763 317.383 389.069 317.354 389.412L317.248 390.834C317.216 391.265 317.268 391.643 317.403 391.968C317.542 392.294 317.753 392.552 318.035 392.744C318.317 392.936 318.66 393.047 319.064 393.077C319.333 393.097 319.581 393.077 319.809 393.018C320.038 392.959 320.237 392.86 320.407 392.721C320.577 392.582 320.711 392.405 320.811 392.192L323.032 392.505C322.879 393.033 322.612 393.485 322.231 393.859C321.854 394.23 321.382 394.506 320.814 394.688C320.25 394.867 319.609 394.929 318.891 394.876ZM324.474 395.119L325.119 386.416L327.42 386.586L327.306 388.122L327.408 388.13C327.627 387.633 327.959 387.253 328.404 386.99C328.849 386.727 329.366 386.617 329.955 386.661C330.552 386.705 331.049 386.892 331.446 387.221C331.844 387.547 332.094 387.968 332.196 388.485L332.286 388.492C332.501 388.006 332.852 387.631 333.338 387.367C333.829 387.1 334.394 386.99 335.032 387.037C335.844 387.098 336.484 387.405 336.952 387.96C337.424 388.512 337.625 389.26 337.555 390.204L337.121 396.057L334.712 395.879L335.111 390.501C335.147 390.018 335.046 389.646 334.807 389.385C334.568 389.124 334.256 388.979 333.87 388.951C333.432 388.918 333.08 389.033 332.814 389.294C332.548 389.552 332.398 389.907 332.364 390.36L331.97 395.675L329.63 395.502L330.033 390.073C330.064 389.647 329.967 389.298 329.74 389.026C329.517 388.755 329.207 388.605 328.81 388.576C328.542 388.556 328.295 388.606 328.07 388.726C327.849 388.842 327.667 389.017 327.524 389.249C327.382 389.478 327.299 389.753 327.275 390.074L326.887 395.298L324.474 395.119ZM346.08 385.054L345.219 396.658L342.766 396.476L343.627 384.872L346.08 385.054ZM346.95 400.068L347.838 388.101L350.218 388.278L350.109 389.74L350.217 389.748C350.34 389.521 350.511 389.295 350.729 389.068C350.951 388.837 351.231 388.653 351.568 388.515C351.909 388.373 352.323 388.32 352.81 388.356C353.445 388.403 354.018 388.613 354.53 388.985C355.042 389.353 355.434 389.882 355.705 390.571C355.977 391.256 356.076 392.097 356.002 393.094C355.93 394.065 355.713 394.873 355.35 395.518C354.991 396.16 354.53 396.633 353.968 396.937C353.41 397.237 352.801 397.363 352.14 397.314C351.671 397.279 351.279 397.172 350.962 396.993C350.648 396.814 350.396 396.6 350.206 396.35C350.016 396.097 349.875 395.845 349.783 395.595L349.71 395.59L349.364 400.247L346.95 400.068ZM349.878 392.628C349.84 393.146 349.878 393.602 349.993 393.998C350.108 394.394 350.293 394.71 350.549 394.946C350.806 395.177 351.128 395.308 351.517 395.336C351.91 395.366 352.251 395.283 352.539 395.087C352.827 394.889 353.055 394.602 353.224 394.227C353.396 393.848 353.501 393.406 353.538 392.9C353.576 392.397 353.539 391.95 353.427 391.558C353.316 391.166 353.132 390.853 352.876 390.617C352.62 390.382 352.294 390.249 351.897 390.22C351.504 390.191 351.164 390.27 350.877 390.457C350.593 390.645 350.365 390.925 350.193 391.296C350.022 391.666 349.916 392.111 349.878 392.628ZM364.993 391.869L362.773 391.841C362.749 391.65 362.68 391.474 362.567 391.313C362.454 391.149 362.299 391.014 362.101 390.908C361.908 390.799 361.672 390.734 361.392 390.713C361.018 390.686 360.697 390.742 360.428 390.881C360.16 391.017 360.016 391.215 359.997 391.476C359.981 391.684 360.051 391.865 360.207 392.021C360.363 392.177 360.639 392.314 361.037 392.43L362.589 392.865C363.422 393.101 364.032 393.427 364.419 393.844C364.806 394.26 364.976 394.781 364.93 395.408C364.887 395.979 364.682 396.467 364.314 396.873C363.949 397.279 363.467 397.581 362.868 397.779C362.272 397.975 361.597 398.044 360.841 397.988C359.689 397.903 358.789 397.595 358.141 397.064C357.497 396.53 357.147 395.843 357.091 395.004L359.475 395.055C359.521 395.412 359.674 395.693 359.936 395.898C360.199 396.1 360.545 396.217 360.976 396.249C361.399 396.28 361.745 396.224 362.014 396.081C362.287 395.934 362.435 395.73 362.458 395.47C362.47 395.251 362.391 395.064 362.22 394.911C362.05 394.754 361.778 394.624 361.406 394.52L359.921 394.108C359.084 393.875 358.473 393.534 358.088 393.083C357.708 392.634 357.542 392.084 357.59 391.434C357.631 390.875 357.818 390.405 358.15 390.023C358.486 389.641 358.938 389.361 359.506 389.183C360.077 389.005 360.735 388.944 361.479 388.999C362.579 389.081 363.427 389.377 364.023 389.889C364.623 390.4 364.946 391.061 364.993 391.869ZM372.106 394.927L372.476 389.929L374.89 390.108L374.244 398.811L371.927 398.64L372.044 397.059L371.954 397.052C371.719 397.547 371.362 397.933 370.882 398.209C370.406 398.485 369.841 398.599 369.187 398.55C368.606 398.507 368.104 398.337 367.681 398.04C367.259 397.742 366.941 397.341 366.728 396.835C366.519 396.33 366.437 395.737 366.484 395.057L366.895 389.515L369.309 389.694L368.93 394.805C368.895 395.319 369.003 395.735 369.253 396.054C369.503 396.373 369.856 396.549 370.313 396.583C370.604 396.604 370.881 396.558 371.144 396.445C371.407 396.328 371.626 396.143 371.801 395.89C371.979 395.637 372.08 395.316 372.106 394.927ZM376.175 398.955L376.821 390.251L379.121 390.422L379.008 391.958L379.109 391.965C379.329 391.469 379.661 391.089 380.106 390.825C380.551 390.562 381.068 390.452 381.657 390.496C382.254 390.54 382.751 390.727 383.148 391.057C383.545 391.383 383.795 391.804 383.897 392.32L383.988 392.327C384.203 391.842 384.553 391.467 385.04 391.203C385.531 390.935 386.096 390.825 386.734 390.873C387.546 390.933 388.186 391.241 388.654 391.796C389.126 392.347 389.327 393.095 389.257 394.04L388.822 399.893L386.414 399.714L386.813 394.337C386.849 393.853 386.747 393.481 386.508 393.22C386.27 392.96 385.957 392.815 385.572 392.786C385.134 392.754 384.782 392.868 384.515 393.13C384.249 393.387 384.1 393.743 384.066 394.196L383.672 399.511L381.332 399.337L381.734 393.909C381.766 393.482 381.668 393.133 381.442 392.862C381.219 392.591 380.909 392.44 380.512 392.411C380.244 392.391 379.997 392.441 379.772 392.561C379.55 392.678 379.368 392.852 379.226 393.085C379.084 393.313 379 393.588 378.977 393.909L378.589 399.134L376.175 398.955Z" fill="#1E1E1E"/>
<path d="M288.586 412.512L289.232 403.808L290.286 403.887L289.709 411.655L293.755 411.955L293.686 412.89L288.586 412.512ZM297.823 413.334C297.234 413.29 296.727 413.112 296.303 412.798C295.882 412.485 295.566 412.067 295.354 411.544C295.145 411.021 295.065 410.423 295.115 409.749C295.166 409.069 295.333 408.484 295.617 407.995C295.904 407.507 296.279 407.139 296.742 406.891C297.207 406.643 297.735 406.542 298.324 406.585C298.913 406.629 299.418 406.808 299.84 407.121C300.264 407.434 300.58 407.854 300.789 408.379C301.001 408.905 301.081 409.508 301.031 410.187C300.981 410.862 300.812 411.442 300.526 411.928C300.242 412.414 299.867 412.78 299.401 413.028C298.939 413.276 298.413 413.378 297.823 413.334ZM297.89 412.433C298.338 412.466 298.715 412.379 299.021 412.171C299.327 411.963 299.563 411.677 299.729 411.313C299.896 410.949 299.995 410.549 300.028 410.113C300.06 409.677 300.021 409.265 299.91 408.878C299.799 408.491 299.608 408.17 299.336 407.917C299.064 407.663 298.705 407.519 298.257 407.486C297.809 407.453 297.433 407.542 297.126 407.753C296.82 407.964 296.584 408.252 296.417 408.619C296.25 408.985 296.15 409.387 296.118 409.823C296.086 410.259 296.125 410.67 296.236 411.054C296.347 411.438 296.539 411.756 296.811 412.007C297.083 412.258 297.442 412.4 297.89 412.433ZM302.322 413.531L302.806 407.003L303.775 407.075L303.702 408.061L303.77 408.066C303.913 407.752 304.148 407.506 304.474 407.328C304.801 407.15 305.16 407.075 305.551 407.104C305.624 407.11 305.716 407.118 305.827 407.129C305.937 407.14 306.02 407.151 306.076 407.16L306.001 408.18C305.967 408.169 305.89 408.151 305.77 408.125C305.652 408.096 305.527 408.077 305.394 408.067C305.077 408.043 304.788 408.089 304.529 408.204C304.273 408.316 304.064 408.483 303.902 408.704C303.744 408.923 303.653 409.18 303.631 409.475L303.325 413.605L302.322 413.531ZM309.303 414.185C308.674 414.139 308.142 413.96 307.706 413.648C307.274 413.334 306.953 412.917 306.743 412.397C306.537 411.875 306.459 411.28 306.508 410.611C306.558 409.942 306.724 409.362 307.005 408.87C307.29 408.376 307.662 408.002 308.122 407.748C308.586 407.492 309.112 407.386 309.701 407.429C310.041 407.455 310.373 407.536 310.696 407.674C311.019 407.812 311.307 408.019 311.56 408.294C311.813 408.566 312.005 408.916 312.136 409.345C312.267 409.773 312.309 410.292 312.264 410.901L312.233 411.326L307.201 410.953L307.265 410.086L311.277 410.384C311.304 410.015 311.255 409.681 311.129 409.381C311.006 409.082 310.816 408.838 310.559 408.651C310.305 408.464 309.997 408.357 309.635 408.33C309.235 408.301 308.882 408.374 308.576 408.551C308.272 408.725 308.031 408.963 307.852 409.266C307.672 409.569 307.57 409.901 307.543 410.26L307.5 410.838C307.463 411.331 307.517 411.755 307.662 412.111C307.81 412.464 308.03 412.741 308.322 412.942C308.615 413.14 308.964 413.254 309.37 413.284C309.633 413.304 309.874 413.285 310.092 413.227C310.313 413.166 310.507 413.067 310.674 412.928C310.841 412.787 310.975 412.606 311.077 412.386L312.026 412.729C311.9 413.051 311.707 413.327 311.447 413.558C311.188 413.787 310.876 413.957 310.512 414.07C310.148 414.18 309.745 414.218 309.303 414.185ZM313.541 414.363L314.026 407.836L314.994 407.907L314.919 408.927L315.004 408.934C315.166 408.595 315.405 408.341 315.723 408.171C316.04 407.998 316.412 407.927 316.837 407.959C317.267 407.991 317.618 408.115 317.89 408.332C318.165 408.546 318.37 408.833 318.506 409.193L318.574 409.199C318.766 408.874 319.036 408.625 319.385 408.451C319.735 408.275 320.143 408.204 320.61 408.239C321.194 408.282 321.658 408.5 322.002 408.893C322.346 409.283 322.49 409.862 322.433 410.63L322.109 414.999L321.106 414.924L321.43 410.556C321.466 410.074 321.359 409.72 321.111 409.494C320.863 409.267 320.561 409.141 320.204 409.114C319.745 409.08 319.379 409.193 319.106 409.452C318.833 409.708 318.682 410.047 318.65 410.469L318.335 414.719L317.315 414.643L317.647 410.172C317.674 409.801 317.576 409.493 317.352 409.249C317.128 409.002 316.826 408.864 316.447 408.836C316.186 408.816 315.937 408.868 315.7 408.99C315.466 409.112 315.271 409.291 315.114 409.527C314.96 409.761 314.871 410.038 314.847 410.358L314.544 414.438L313.541 414.363ZM329.144 406.769L328.498 415.473L327.444 415.394L328.09 406.691L329.144 406.769ZM330.294 418.067L330.959 409.092L331.928 409.164L331.851 410.201L331.97 410.209C332.053 410.102 332.165 409.965 332.309 409.799C332.455 409.63 332.657 409.486 332.913 409.365C333.173 409.242 333.516 409.196 333.941 409.228C334.49 409.268 334.964 409.442 335.363 409.748C335.762 410.053 336.061 410.467 336.258 410.989C336.456 411.511 336.53 412.114 336.479 412.8C336.427 413.491 336.265 414.082 335.993 414.572C335.72 415.058 335.365 415.425 334.928 415.672C334.491 415.916 334.001 416.018 333.457 415.977C333.038 415.946 332.707 415.852 332.465 415.694C332.224 415.534 332.041 415.36 331.919 415.171C331.796 414.98 331.702 414.822 331.638 414.697L331.553 414.691L331.297 418.142L330.294 418.067ZM331.703 412.429C331.667 412.922 331.707 413.362 331.823 413.749C331.94 414.134 332.129 414.443 332.391 414.676C332.653 414.906 332.985 415.036 333.388 415.066C333.807 415.097 334.165 415.013 334.462 414.813C334.762 414.61 334.997 414.325 335.166 413.959C335.339 413.59 335.443 413.173 335.477 412.709C335.511 412.25 335.471 411.831 335.357 411.452C335.245 411.071 335.056 410.762 334.789 410.525C334.524 410.286 334.18 410.151 333.755 410.12C333.347 410.089 332.996 410.167 332.703 410.354C332.411 410.537 332.18 410.808 332.011 411.165C331.842 411.52 331.739 411.941 331.703 412.429ZM342.767 411.438L341.847 411.626C341.802 411.472 341.729 411.319 341.629 411.17C341.532 411.017 341.394 410.887 341.214 410.78C341.033 410.672 340.798 410.608 340.506 410.586C340.106 410.557 339.767 410.624 339.487 410.788C339.21 410.95 339.061 411.171 339.04 411.452C339.021 411.701 339.098 411.905 339.268 412.063C339.439 412.221 339.713 412.362 340.091 412.487L341.043 412.797C341.616 412.982 342.034 413.231 342.299 413.544C342.564 413.854 342.679 414.237 342.645 414.693C342.618 415.067 342.485 415.394 342.248 415.672C342.014 415.951 341.699 416.161 341.304 416.303C340.909 416.445 340.458 416.497 339.95 416.459C339.285 416.41 338.744 416.224 338.329 415.903C337.915 415.582 337.67 415.139 337.595 414.575L338.564 414.408C338.629 414.766 338.781 415.042 339.02 415.236C339.262 415.431 339.588 415.543 339.999 415.574C340.466 415.608 340.845 415.537 341.134 415.359C341.427 415.178 341.584 414.948 341.605 414.667C341.621 414.441 341.556 414.245 341.409 414.08C341.262 413.913 341.027 413.778 340.704 413.678L339.635 413.342C339.047 413.156 338.625 412.904 338.366 412.585C338.111 412.265 338 411.879 338.033 411.428C338.061 411.06 338.188 410.742 338.416 410.474C338.647 410.206 338.948 410.005 339.32 409.87C339.694 409.736 340.111 409.685 340.57 409.719C341.216 409.767 341.713 409.947 342.06 410.257C342.41 410.568 342.646 410.962 342.767 411.438ZM348.332 414.261L348.618 410.402L349.621 410.476L349.137 417.004L348.134 416.929L348.216 415.824L348.148 415.819C347.97 416.14 347.711 416.404 347.371 416.612C347.031 416.818 346.615 416.902 346.122 416.866C345.714 416.835 345.358 416.719 345.054 416.517C344.75 416.312 344.521 416.022 344.366 415.646C344.212 415.267 344.155 414.8 344.197 414.244L344.504 410.097L345.507 410.171L345.205 414.251C345.169 414.727 345.274 415.116 345.52 415.419C345.768 415.723 346.1 415.89 346.516 415.921C346.766 415.939 347.024 415.894 347.291 415.786C347.561 415.678 347.794 415.498 347.989 415.248C348.187 414.998 348.301 414.669 348.332 414.261ZM350.974 417.14L351.458 410.613L352.427 410.684L352.351 411.704L352.436 411.711C352.598 411.372 352.838 411.118 353.155 410.948C353.473 410.775 353.844 410.704 354.269 410.736C354.7 410.768 355.051 410.892 355.322 411.109C355.597 411.323 355.802 411.61 355.938 411.97L356.006 411.975C356.198 411.651 356.469 411.402 356.818 411.228C357.167 411.052 357.575 410.981 358.043 411.016C358.626 411.059 359.09 411.277 359.434 411.67C359.778 412.06 359.922 412.639 359.865 413.407L359.541 417.776L358.538 417.701L358.862 413.333C358.898 412.851 358.792 412.497 358.543 412.271C358.295 412.044 357.993 411.918 357.636 411.891C357.177 411.857 356.811 411.97 356.538 412.229C356.266 412.485 356.114 412.824 356.082 413.246L355.767 417.496L354.747 417.42L355.079 412.949C355.106 412.578 355.008 412.27 354.784 412.026C354.56 411.778 354.259 411.641 353.879 411.613C353.618 411.593 353.37 411.645 353.133 411.767C352.899 411.889 352.703 412.068 352.546 412.304C352.392 412.538 352.303 412.815 352.279 413.135L351.977 417.214L350.974 417.14Z" fill="#576168"/>
<g filter="url(#filter2_d_1198_529)">
<rect x="374.822" y="89" width="166.876" height="226.321" rx="15" transform="rotate(5.5331 374.822 89)" fill="#FBD87F"/>
</g>
<rect x="410.582" y="127" width="88.9742" height="88.9742" rx="44.4871" transform="rotate(4.2427 410.582 127)" fill="#E1BC5F"/>
<path d="M394.509 258.36L395.734 246.789L398.181 247.048L397.17 256.602L402.13 257.127L401.917 259.144L394.509 258.36ZM407.395 259.896C406.518 259.803 405.778 259.536 405.177 259.095C404.581 258.651 404.145 258.076 403.869 257.368C403.594 256.657 403.503 255.858 403.597 254.969C403.692 254.072 403.948 253.307 404.366 252.673C404.784 252.035 405.331 251.564 406.007 251.258C406.687 250.949 407.466 250.841 408.344 250.934C409.221 251.027 409.959 251.296 410.555 251.74C411.156 252.18 411.594 252.756 411.869 253.467C412.145 254.174 412.235 254.976 412.141 255.873C412.046 256.762 411.79 257.525 411.373 258.162C410.955 258.796 410.406 259.268 409.726 259.577C409.05 259.882 408.273 259.988 407.395 259.896ZM407.604 258.032C408.003 258.074 408.349 257.997 408.64 257.799C408.932 257.598 409.166 257.306 409.344 256.925C409.525 256.544 409.642 256.102 409.696 255.597C409.749 255.092 409.727 254.635 409.63 254.224C409.536 253.814 409.367 253.48 409.124 253.222C408.881 252.964 408.56 252.814 408.161 252.772C407.758 252.729 407.406 252.808 407.107 253.009C406.812 253.21 406.573 253.501 406.392 253.882C406.215 254.263 406.099 254.706 406.046 255.21C405.992 255.715 406.012 256.173 406.106 256.582C406.204 256.993 406.376 257.327 406.623 257.586C406.874 257.841 407.201 257.99 407.604 258.032ZM413.25 260.344L414.168 251.665L416.502 251.912L416.342 253.426L416.432 253.436C416.647 252.914 416.956 252.535 417.358 252.3C417.76 252.06 418.205 251.966 418.691 252.018C418.811 252.031 418.94 252.052 419.078 252.082C419.216 252.112 419.336 252.145 419.439 252.183L419.213 254.319C419.103 254.273 418.95 254.226 418.753 254.178C418.556 254.131 418.375 254.098 418.209 254.081C417.855 254.043 417.531 254.087 417.236 254.212C416.945 254.334 416.704 254.522 416.513 254.776C416.326 255.03 416.214 255.334 416.177 255.688L415.657 260.599L413.25 260.344ZM423.294 261.578C422.401 261.484 421.652 261.222 421.046 260.792C420.444 260.359 420.005 259.79 419.729 259.087C419.454 258.38 419.364 257.568 419.461 256.653C419.556 255.76 419.812 254.995 420.23 254.358C420.648 253.72 421.191 253.246 421.86 252.936C422.533 252.626 423.295 252.517 424.146 252.607C424.719 252.667 425.242 252.816 425.716 253.053C426.194 253.286 426.598 253.605 426.929 254.01C427.263 254.414 427.504 254.905 427.653 255.48C427.802 256.052 427.837 256.707 427.759 257.446L427.689 258.107L420.361 257.331L420.519 255.839L425.581 256.375C425.618 256.029 425.575 255.714 425.453 255.43C425.33 255.147 425.143 254.916 424.892 254.737C424.645 254.554 424.346 254.445 423.995 254.408C423.63 254.369 423.297 254.419 422.997 254.559C422.7 254.695 422.458 254.896 422.27 255.162C422.082 255.424 421.969 255.726 421.929 256.069L421.778 257.487C421.733 257.916 421.773 258.296 421.898 258.625C422.027 258.955 422.229 259.22 422.505 259.421C422.781 259.621 423.12 259.743 423.523 259.786C423.791 259.814 424.04 259.802 424.27 259.75C424.5 259.698 424.702 259.606 424.877 259.472C425.051 259.338 425.191 259.166 425.297 258.956L427.507 259.339C427.338 259.862 427.057 260.304 426.664 260.666C426.276 261.025 425.795 261.287 425.221 261.451C424.652 261.611 424.009 261.654 423.294 261.578ZM428.866 261.996L429.784 253.318L432.078 253.56L431.916 255.092L432.018 255.102C432.253 254.613 432.596 254.244 433.049 253.995C433.502 253.745 434.023 253.652 434.61 253.714C435.206 253.777 435.696 253.979 436.083 254.321C436.47 254.659 436.707 255.088 436.793 255.608L436.883 255.617C437.113 255.139 437.475 254.775 437.97 254.527C438.469 254.275 439.036 254.182 439.673 254.25C440.483 254.336 441.113 254.663 441.563 255.233C442.017 255.799 442.195 256.553 442.095 257.494L441.477 263.331L439.076 263.077L439.643 257.715C439.694 257.233 439.605 256.857 439.374 256.589C439.143 256.321 438.836 256.167 438.452 256.126C438.015 256.08 437.659 256.183 437.385 256.436C437.111 256.685 436.95 257.036 436.902 257.488L436.341 262.788L434.008 262.541L434.58 257.128C434.626 256.702 434.539 256.35 434.321 256.072C434.106 255.794 433.802 255.634 433.406 255.592C433.139 255.564 432.89 255.606 432.661 255.719C432.436 255.828 432.249 255.997 432.099 256.225C431.95 256.449 431.858 256.721 431.824 257.042L431.273 262.251L428.866 261.996ZM450.778 252.614L449.553 264.186L447.106 263.927L448.331 252.355L450.778 252.614ZM451.176 267.648L452.439 255.715L454.812 255.966L454.658 257.424L454.765 257.435C454.895 257.213 455.073 256.992 455.298 256.772C455.528 256.549 455.813 256.373 456.154 256.245C456.499 256.114 456.915 256.075 457.401 256.126C458.034 256.193 458.6 256.42 459.1 256.809C459.6 257.193 459.975 257.733 460.225 258.43C460.475 259.123 460.548 259.967 460.443 260.962C460.34 261.93 460.098 262.731 459.714 263.364C459.335 263.994 458.86 264.453 458.289 264.739C457.722 265.022 457.109 265.128 456.45 265.058C455.983 265.009 455.593 264.89 455.282 264.701C454.974 264.512 454.729 264.29 454.547 264.034C454.365 263.775 454.232 263.519 454.148 263.266L454.075 263.259L453.583 267.903L451.176 267.648ZM454.336 260.304C454.281 260.82 454.305 261.278 454.408 261.677C454.51 262.076 454.686 262.398 454.934 262.641C455.183 262.881 455.502 263.021 455.89 263.062C456.281 263.104 456.624 263.031 456.918 262.845C457.212 262.656 457.45 262.376 457.63 262.007C457.814 261.634 457.933 261.195 457.986 260.69C458.039 260.189 458.016 259.741 457.917 259.346C457.818 258.951 457.644 258.631 457.396 258.388C457.147 258.145 456.825 258.002 456.43 257.96C456.038 257.919 455.695 257.987 455.402 258.166C455.113 258.344 454.876 258.617 454.693 258.982C454.51 259.347 454.391 259.788 454.336 260.304ZM469.467 260.02L467.249 259.922C467.231 259.73 467.168 259.552 467.06 259.388C466.952 259.22 466.801 259.081 466.607 258.969C466.418 258.853 466.183 258.781 465.905 258.751C465.532 258.712 465.209 258.758 464.936 258.889C464.663 259.016 464.513 259.21 464.486 259.47C464.464 259.677 464.528 259.861 464.679 260.021C464.829 260.182 465.102 260.327 465.496 260.456L467.033 260.939C467.858 261.202 468.458 261.547 468.832 261.975C469.205 262.403 469.359 262.93 469.293 263.555C469.233 264.124 469.012 264.605 468.632 264.999C468.255 265.394 467.763 265.681 467.158 265.86C466.556 266.037 465.879 266.085 465.125 266.005C463.977 265.884 463.087 265.547 462.455 264.997C461.828 264.443 461.5 263.746 461.471 262.904L463.852 263.031C463.886 263.389 464.031 263.674 464.287 263.888C464.543 264.098 464.885 264.226 465.315 264.271C465.737 264.316 466.084 264.271 466.357 264.136C466.635 263.998 466.789 263.799 466.821 263.539C466.84 263.32 466.767 263.132 466.601 262.973C466.435 262.811 466.168 262.672 465.799 262.557L464.328 262.098C463.498 261.839 462.898 261.479 462.528 261.017C462.162 260.555 462.013 260 462.081 259.352C462.14 258.795 462.342 258.331 462.686 257.959C463.034 257.589 463.494 257.323 464.067 257.163C464.644 257.003 465.304 256.962 466.046 257.041C467.142 257.157 467.98 257.48 468.56 258.01C469.144 258.54 469.446 259.21 469.467 260.02ZM476.48 263.299L477.008 258.315L479.415 258.57L478.496 267.249L476.185 267.004L476.352 265.428L476.262 265.418C476.012 265.906 475.643 266.28 475.155 266.541C474.67 266.802 474.102 266.898 473.45 266.829C472.87 266.768 472.374 266.582 471.961 266.271C471.548 265.961 471.243 265.55 471.046 265.038C470.852 264.526 470.79 263.931 470.858 263.252L471.442 257.726L473.849 257.981L473.31 263.077C473.26 263.59 473.354 264.01 473.594 264.336C473.834 264.662 474.181 264.849 474.637 264.898C474.927 264.928 475.205 264.891 475.472 264.786C475.738 264.677 475.963 264.499 476.145 264.252C476.331 264.005 476.443 263.687 476.48 263.299ZM480.422 267.453L481.34 258.774L483.634 259.016L483.472 260.548L483.574 260.558C483.809 260.069 484.152 259.7 484.605 259.451C485.058 259.201 485.579 259.108 486.166 259.17C486.761 259.233 487.252 259.436 487.639 259.777C488.026 260.115 488.262 260.544 488.348 261.064L488.439 261.073C488.668 260.595 489.031 260.231 489.525 259.983C490.024 259.731 490.592 259.639 491.229 259.706C492.039 259.792 492.669 260.119 493.119 260.689C493.573 261.255 493.751 262.009 493.651 262.95L493.033 268.787L490.632 268.533L491.199 263.171C491.25 262.689 491.16 262.314 490.93 262.045C490.699 261.777 490.392 261.623 490.008 261.582C489.571 261.536 489.215 261.639 488.941 261.892C488.667 262.141 488.506 262.492 488.458 262.944L487.897 268.244L485.563 267.997L486.136 262.584C486.181 262.158 486.095 261.806 485.877 261.528C485.662 261.25 485.357 261.09 484.962 261.048C484.694 261.02 484.446 261.062 484.217 261.175C483.992 261.285 483.805 261.453 483.655 261.681C483.506 261.905 483.414 262.178 483.38 262.498L482.829 267.707L480.422 267.453Z" fill="#1E1E1E"/>
<path d="M405.212 280.922L406.131 272.243L407.182 272.354L406.362 280.101L410.396 280.528L410.298 281.46L405.212 280.922ZM414.419 282.034C413.832 281.971 413.331 281.777 412.917 281.45C412.506 281.124 412.202 280.696 412.007 280.167C411.814 279.638 411.754 279.038 411.825 278.365C411.897 277.687 412.082 277.108 412.382 276.629C412.684 276.149 413.07 275.793 413.54 275.56C414.013 275.327 414.544 275.242 415.131 275.304C415.719 275.366 416.218 275.561 416.629 275.887C417.043 276.213 417.347 276.643 417.539 277.174C417.734 277.706 417.796 278.311 417.724 278.989C417.653 279.662 417.466 280.236 417.164 280.713C416.865 281.19 416.479 281.544 416.006 281.777C415.536 282.01 415.007 282.096 414.419 282.034ZM414.514 281.135C414.961 281.182 415.34 281.107 415.652 280.908C415.965 280.71 416.21 280.432 416.388 280.074C416.566 279.715 416.678 279.319 416.724 278.884C416.77 278.449 416.743 278.036 416.645 277.645C416.546 277.255 416.365 276.929 416.101 276.667C415.838 276.404 415.483 276.25 415.036 276.202C414.59 276.155 414.21 276.232 413.898 276.433C413.585 276.635 413.34 276.916 413.161 277.277C412.983 277.638 412.871 278.036 412.825 278.471C412.779 278.906 412.805 279.317 412.904 279.705C413.003 280.093 413.185 280.416 413.449 280.675C413.713 280.935 414.068 281.088 414.514 281.135ZM418.91 282.372L419.598 275.863L420.565 275.965L420.461 276.948L420.528 276.955C420.681 276.646 420.924 276.407 421.256 276.239C421.587 276.072 421.948 276.008 422.338 276.05C422.412 276.057 422.503 276.069 422.613 276.083C422.723 276.098 422.806 276.111 422.862 276.122L422.754 277.139C422.721 277.127 422.645 277.106 422.525 277.076C422.409 277.044 422.284 277.021 422.151 277.007C421.835 276.973 421.545 277.01 421.283 277.116C421.023 277.22 420.809 277.38 420.64 277.597C420.475 277.811 420.377 278.065 420.346 278.358L419.91 282.477L418.91 282.372ZM425.866 283.245C425.239 283.179 424.713 282.983 424.287 282.658C423.865 282.33 423.557 281.904 423.364 281.378C423.174 280.849 423.115 280.251 423.185 279.585C423.256 278.918 423.44 278.343 423.736 277.86C424.036 277.375 424.42 277.013 424.888 276.774C425.36 276.532 425.889 276.443 426.477 276.505C426.816 276.541 427.145 276.633 427.463 276.781C427.782 276.929 428.063 277.144 428.307 277.427C428.552 277.707 428.733 278.063 428.85 278.496C428.967 278.928 428.993 279.448 428.929 280.055L428.884 280.479L423.867 279.948L423.958 279.084L427.959 279.507C427.998 279.14 427.959 278.804 427.842 278.5C427.729 278.197 427.547 277.948 427.296 277.753C427.048 277.558 426.743 277.441 426.382 277.403C425.983 277.361 425.628 277.423 425.316 277.59C425.007 277.755 424.759 277.986 424.57 278.283C424.382 278.58 424.268 278.908 424.23 279.267L424.169 279.843C424.117 280.335 424.158 280.76 424.291 281.12C424.428 281.477 424.639 281.761 424.925 281.971C425.212 282.179 425.557 282.304 425.961 282.347C426.224 282.374 426.465 282.363 426.685 282.312C426.908 282.258 427.105 282.165 427.276 282.031C427.447 281.895 427.588 281.719 427.696 281.502L428.634 281.875C428.497 282.192 428.296 282.462 428.029 282.685C427.763 282.906 427.446 283.067 427.079 283.168C426.711 283.266 426.307 283.292 425.866 283.245ZM430.097 283.556L430.786 277.046L431.752 277.149L431.645 278.166L431.729 278.175C431.902 277.842 432.149 277.595 432.472 277.435C432.795 277.272 433.168 277.213 433.592 277.258C434.021 277.303 434.368 277.438 434.633 277.664C434.901 277.886 435.097 278.18 435.221 278.544L435.289 278.551C435.491 278.233 435.769 277.992 436.124 277.83C436.478 277.665 436.889 277.607 437.355 277.656C437.937 277.718 438.394 277.95 438.725 278.354C439.057 278.755 439.182 279.338 439.101 280.103L438.64 284.46L437.64 284.354L438.101 279.998C438.152 279.517 438.057 279.16 437.816 278.926C437.575 278.692 437.277 278.556 436.921 278.518C436.463 278.47 436.094 278.571 435.813 278.821C435.533 279.069 435.37 279.403 435.326 279.824L434.877 284.061L433.86 283.954L434.332 279.496C434.371 279.126 434.283 278.815 434.066 278.563C433.85 278.309 433.553 278.162 433.175 278.122C432.915 278.095 432.664 278.138 432.424 278.253C432.186 278.367 431.985 278.54 431.82 278.771C431.659 279 431.562 279.274 431.528 279.593L431.097 283.661L430.097 283.556ZM445.93 276.455L445.012 285.134L443.961 285.023L444.879 276.344L445.93 276.455ZM446.725 287.784L447.672 278.834L448.638 278.936L448.529 279.97L448.648 279.982C448.733 279.877 448.85 279.744 448.998 279.582C449.15 279.418 449.356 279.28 449.617 279.168C449.88 279.053 450.224 279.018 450.648 279.063C451.196 279.121 451.664 279.309 452.053 279.627C452.442 279.945 452.728 280.368 452.909 280.896C453.09 281.424 453.145 282.029 453.072 282.713C452.999 283.402 452.819 283.988 452.531 284.468C452.243 284.947 451.877 285.302 451.432 285.535C450.988 285.765 450.495 285.851 449.952 285.794C449.534 285.75 449.207 285.645 448.97 285.48C448.733 285.312 448.557 285.132 448.44 284.94C448.324 284.745 448.235 284.584 448.174 284.457L448.089 284.448L447.725 287.889L446.725 287.784ZM448.311 282.192C448.259 282.684 448.285 283.125 448.389 283.516C448.494 283.904 448.673 284.219 448.928 284.46C449.183 284.698 449.511 284.839 449.912 284.881C450.33 284.925 450.69 284.852 450.993 284.661C451.3 284.468 451.543 284.191 451.724 283.83C451.908 283.467 452.025 283.054 452.074 282.59C452.122 282.133 452.095 281.713 451.993 281.331C451.894 280.946 451.714 280.631 451.454 280.387C451.198 280.139 450.858 279.993 450.434 279.949C450.027 279.905 449.674 279.972 449.376 280.149C449.077 280.323 448.838 280.587 448.658 280.939C448.478 281.288 448.362 281.706 448.311 282.192ZM459.4 281.549L458.475 281.708C458.434 281.552 458.366 281.398 458.271 281.245C458.179 281.09 458.045 280.955 457.868 280.842C457.692 280.729 457.458 280.658 457.167 280.627C456.768 280.585 456.427 280.641 456.142 280.797C455.86 280.95 455.704 281.166 455.675 281.446C455.648 281.695 455.718 281.9 455.883 282.064C456.049 282.227 456.319 282.377 456.693 282.514L457.634 282.853C458.201 283.056 458.612 283.318 458.866 283.639C459.121 283.958 459.225 284.344 459.176 284.799C459.137 285.172 458.994 285.494 458.749 285.765C458.506 286.036 458.184 286.237 457.785 286.366C457.386 286.495 456.933 286.533 456.427 286.479C455.764 286.409 455.229 286.207 454.825 285.873C454.42 285.538 454.189 285.088 454.132 284.522L455.106 284.385C455.16 284.745 455.303 285.026 455.536 285.228C455.771 285.43 456.094 285.553 456.504 285.596C456.97 285.645 457.351 285.586 457.645 285.417C457.944 285.246 458.107 285.02 458.137 284.74C458.161 284.514 458.102 284.317 457.96 284.147C457.818 283.975 457.587 283.834 457.268 283.723L456.21 283.354C455.629 283.149 455.214 282.884 454.966 282.558C454.72 282.229 454.622 281.84 454.669 281.391C454.708 281.024 454.846 280.71 455.082 280.449C455.321 280.189 455.628 279.997 456.004 279.874C456.382 279.751 456.801 279.714 457.258 279.762C457.902 279.83 458.393 280.025 458.731 280.347C459.071 280.668 459.294 281.069 459.4 281.549ZM464.874 284.545L465.281 280.697L466.281 280.803L465.592 287.312L464.592 287.206L464.709 286.104L464.641 286.097C464.453 286.412 464.186 286.668 463.84 286.865C463.493 287.06 463.074 287.131 462.583 287.079C462.176 287.036 461.824 286.909 461.526 286.697C461.229 286.483 461.009 286.186 460.867 285.805C460.724 285.421 460.682 284.953 460.741 284.399L461.179 280.263L462.179 280.369L461.748 284.437C461.698 284.912 461.791 285.304 462.026 285.615C462.265 285.926 462.592 286.103 463.007 286.147C463.256 286.173 463.515 286.137 463.786 286.037C464.059 285.937 464.297 285.765 464.5 285.521C464.706 285.277 464.831 284.952 464.874 284.545ZM467.424 287.506L468.113 280.997L469.079 281.099L468.971 282.116L469.056 282.125C469.228 281.792 469.476 281.545 469.799 281.385C470.121 281.222 470.495 281.163 470.919 281.208C471.348 281.253 471.695 281.389 471.96 281.614C472.228 281.836 472.424 282.13 472.548 282.495L472.616 282.502C472.818 282.183 473.096 281.943 473.451 281.78C473.805 281.615 474.215 281.557 474.682 281.606C475.264 281.668 475.72 281.9 476.052 282.304C476.384 282.705 476.509 283.288 476.428 284.054L475.967 288.41L474.967 288.304L475.428 283.948C475.479 283.467 475.384 283.11 475.143 282.876C474.902 282.642 474.603 282.506 474.248 282.469C473.79 282.42 473.421 282.521 473.14 282.771C472.859 283.019 472.697 283.353 472.652 283.774L472.204 288.012L471.187 287.904L471.659 283.446C471.698 283.076 471.609 282.765 471.393 282.514C471.177 282.259 470.88 282.112 470.501 282.072C470.241 282.045 469.991 282.088 469.751 282.203C469.513 282.318 469.312 282.491 469.147 282.722C468.986 282.95 468.888 283.224 468.854 283.543L468.424 287.612L467.424 287.506Z" fill="#576168"/>
<defs>
<filter id="filter0_d_1198_529" x="0.0527344" y="73.0528" width="405.712" height="351.889" filterUnits="userSpaceOnUse" color-interpolation-filters="sRGB">
<feFlood flood-opacity="0" result="BackgroundImageFix"/>
<feColorMatrix in="SourceAlpha" type="matrix" values="0 0 0 0 0 0 0 0 0 0 0 0 0 0 0 0 0 0 127 0" result="hardAlpha"/>
<feOffset dy="4"/>
<feGaussianBlur stdDeviation="15"/>
<feComposite in2="hardAlpha" operator="out"/>
<feColorMatrix type="matrix" values="0 0 0 0 0 0 0 0 0 0 0 0 0 0 0 0 0 0 0.25 0"/>
<feBlend mode="normal" in2="BackgroundImageFix" result="effect1_dropShadow_1198_529"/>
<feBlend mode="normal" in="SourceGraphic" in2="effect1_dropShadow_1198_529" result="shape"/>
</filter>
<filter id="filter1_d_1198_529" x="168.068" y="326.068" width="378.843" height="160.026" filterUnits="userSpaceOnUse" color-interpolation-filters="sRGB">
<feFlood flood-opacity="0" result="BackgroundImageFix"/>
<feColorMatrix in="SourceAlpha" type="matrix" values="0 0 0 0 0 0 0 0 0 0 0 0 0 0 0 0 0 0 127 0" result="hardAlpha"/>
<feOffset dy="4"/>
<feGaussianBlur stdDeviation="15"/>
<feComposite in2="hardAlpha" operator="out"/>
<feColorMatrix type="matrix" values="0 0 0 0 0 0 0 0 0 0 0 0 0 0 0 0 0 0 0.25 0"/>
<feBlend mode="normal" in2="BackgroundImageFix" result="effect1_dropShadow_1198_529"/>
<feBlend mode="normal" in="SourceGraphic" in2="effect1_dropShadow_1198_529" result="shape"/>
</filter>
<filter id="filter2_d_1198_529" x="324.376" y="64.3754" width="245.169" height="298.606" filterUnits="userSpaceOnUse" color-interpolation-filters="sRGB">
<feFlood flood-opacity="0" result="BackgroundImageFix"/>
<feColorMatrix in="SourceAlpha" type="matrix" values="0 0 0 0 0 0 0 0 0 0 0 0 0 0 0 0 0 0 127 0" result="hardAlpha"/>
<feOffset dy="4"/>
<feGaussianBlur stdDeviation="15"/>
<feComposite in2="hardAlpha" operator="out"/>
<feColorMatrix type="matrix" values="0 0 0 0 0 0 0 0 0 0 0 0 0 0 0 0 0 0 0.25 0"/>
<feBlend mode="normal" in2="BackgroundImageFix" result="effect1_dropShadow_1198_529"/>
<feBlend mode="normal" in="SourceGraphic" in2="effect1_dropShadow_1198_529" result="shape"/>
</filter>
<linearGradient id="paint0_linear_1198_529" x1="288.5" y1="54" x2="288.5" y2="483" gradientUnits="userSpaceOnUse">
<stop stop-color="#FFCFCF" stop-opacity="0.22"/>
<stop offset="1" stop-color="#FFCFCF" stop-opacity="0.22"/>
</linearGradient>
</defs>
</svg>
