<svg width="30" height="25" viewBox="0 0 30 25" fill="none" xmlns="http://www.w3.org/2000/svg">
<path d="M19.7592 17.2492L14.7585 12.2485L9.75781 17.2492" stroke="#576168" stroke-width="2" stroke-linecap="round" stroke-linejoin="round"/>
<path d="M14.7588 12.2485V23.5001" stroke="#576168" stroke-width="2" stroke-linecap="round" stroke-linejoin="round"/>
<path d="M25.2475 20.2371C26.4668 19.5723 27.4301 18.5204 27.9852 17.2474C28.5403 15.9744 28.6557 14.5528 28.3132 13.207C27.9706 11.8611 27.1896 10.6676 26.0934 9.81495C24.9973 8.96225 23.6484 8.49887 22.2596 8.49796H20.6844C20.306 7.03431 19.6007 5.67549 18.6215 4.52365C17.6424 3.37182 16.4148 2.45694 15.0312 1.8478C13.6476 1.23867 12.1439 0.95112 10.6331 1.00678C9.12238 1.06244 7.64391 1.45987 6.30886 2.16917C4.97382 2.87847 3.81694 3.8812 2.92521 5.10197C2.03347 6.32273 1.43009 7.72977 1.16041 9.2173C0.890736 10.7048 0.96179 12.2341 1.36823 13.6902C1.77467 15.1464 2.50592 16.4914 3.50701 17.6242" stroke="#576168" stroke-width="2" stroke-linecap="round" stroke-linejoin="round"/>
<path d="M19.7592 17.2492L14.7585 12.2485L9.75781 17.2492" stroke="#576168" stroke-width="2" stroke-linecap="round" stroke-linejoin="round"/>
</svg>
